<?xml version="1.0" encoding="UTF-8"?>
<svg id="Layer_1" data-name="Layer 1" xmlns="http://www.w3.org/2000/svg" viewBox="0 0 795 1142.26">
  <defs>
    <style>
      .cls-1 {
        fill: #191919;
      }

      .cls-1, .cls-2, .cls-3, .cls-4 {
        stroke-width: 0px;
      }

      .cls-2 {
        fill: #917730;
      }

      .cls-3 {
        fill: #926f38;
      }

      .cls-4 {
        fill: #fff;
      }
    </style>
  </defs>
  <g>
    <g>
      <path class="cls-1" d="m397.5,1084.13c-90.95,0-176.46-35.42-240.77-99.73-64.31-64.31-99.73-149.82-99.73-240.77v-345c0-90.95,35.42-176.46,99.73-240.77,64.31-64.31,149.82-99.73,240.77-99.73s176.46,35.42,240.77,99.73c64.31,64.31,99.73,149.82,99.73,240.77v345c0,90.95-35.42,176.46-99.73,240.77-64.31,64.31-149.82,99.73-240.77,99.73Z"/>
      <path class="cls-3" d="m397.5,65.63c44.96,0,88.57,8.8,129.61,26.16,39.65,16.77,75.27,40.78,105.85,71.37,30.59,30.59,54.6,66.2,71.37,105.85,17.36,41.04,26.16,84.65,26.16,129.61v345c0,44.96-8.8,88.57-26.16,129.61-16.77,39.65-40.78,75.27-71.37,105.85-30.59,30.59-66.2,54.6-105.85,71.37-41.04,17.36-84.65,26.16-129.61,26.16s-88.57-8.8-129.61-26.16c-39.65-16.77-75.27-40.78-105.85-71.37-30.59-30.59-54.6-66.2-71.37-105.85-17.36-41.04-26.16-84.65-26.16-129.61v-345c0-44.96,8.8-88.57,26.16-129.61,16.77-39.65,40.78-75.27,71.37-105.85,30.59-30.59,66.2-54.6,105.85-71.37,41.04-17.36,84.65-26.16,129.61-26.16m0-15h0c-192.2,0-348,155.8-348,348v345c0,192.19,155.8,348,348,348h0c192.19,0,348-155.8,348-348v-345c0-192.2-155.8-348-348-348h0Z"/>
    </g>
    <path class="cls-4" d="m397.5,81.13c42.89,0,84.49,8.4,123.65,24.96,37.83,16,71.8,38.91,100.98,68.09,29.18,29.18,52.09,63.15,68.09,100.98,16.56,39.15,24.96,80.75,24.96,123.65v344.66c0,42.89-8.4,84.49-24.96,123.65-16,37.83-38.91,71.8-68.09,100.98-29.18,29.18-63.15,52.09-100.98,68.09-39.15,16.56-80.76,24.96-123.65,24.96s-84.49-8.4-123.65-24.96c-37.83-16-71.8-38.91-100.98-68.09-29.18-29.18-52.09-63.15-68.09-100.98-16.56-39.15-24.96-80.75-24.96-123.65v-344.66c0-42.89,8.4-84.49,24.96-123.65,16-37.83,38.91-71.8,68.09-100.98,29.18-29.18,63.15-52.09,100.98-68.09,39.15-16.56,80.76-24.96,123.65-24.96m0-15h0c-183.73,0-332.67,148.94-332.67,332.67v344.66c0,183.73,148.94,332.67,332.67,332.67h0c183.73,0,332.67-148.94,332.67-332.67v-344.66c0-183.73-148.94-332.67-332.67-332.67h0Z"/>
  </g>
  <g>
    <polygon class="cls-2" points="335.1 608.46 335.1 618 335.1 625.58 335.1 649.32 335.1 656.06 335.1 672.19 335.1 673.16 354.66 673.16 354.66 672.19 354.66 665.01 354.66 658.79 354.66 637.55 354.66 631.03 354.66 608.46 354.66 569.31 335.1 603.33 335.1 608.46"/>
    <path class="cls-2" d="m460.49,615.04v-158.52c0-34.62-28.06-62.69-62.69-62.69s-62.7,28.07-62.7,62.69v82.09l19.56-34.02v-48.07c0-23.78,19.36-43.13,43.14-43.13,3.01,0,5.96.31,8.79.91,2.16.44,4.25,1.05,6.28,1.81,16.37,6.12,28.05,21.93,28.05,40.41v171.98c7.08-3.67,13.65-8.2,19.56-13.46Z"/>
    <polygon class="cls-2" points="387.44 287.22 387.44 330.9 407 330.9 407 239.99 345.22 301.77 359.05 315.6 387.44 287.22"/>
    <path class="cls-2" d="m329.24,562.52l-16.14,28.06c3.42,6.41,7.57,12.37,12.31,17.8l3.82-6.64,5.86-10.19,19.56-34.01,5.88-10.22,26.9-46.77v140.02c3.22.33,6.48.5,9.78.5s6.56-.17,9.78-.5v-213.25l-46.46,80.78-5.88,10.22-19.56,34.01-5.86,10.19Z"/>
    <path class="cls-2" d="m397.22,340.03c-66.72,0-120.8,54.08-120.8,120.8v84.87c0,23.72,6.83,45.83,18.63,64.49,1.16,1.85,2.38,3.66,3.65,5.43h0c4.03,5.67,8.53,10.97,13.45,15.85,1.43,1.42,2.89,2.8,4.38,4.15,4,3.59,8.25,6.93,12.71,9.96v-24.92c-.9-.81-1.79-1.64-2.66-2.5-1.46-1.41-2.88-2.88-4.25-4.39-4.79-5.26-9.04-11.04-12.65-17.23-1.15-1.99-2.25-4.01-3.27-6.08-6.68-13.5-10.44-28.69-10.44-44.73v-84.12c0-55.82,45.41-101.24,101.24-101.24s101.24,45.41,101.24,101.24v84.12c0,29.12-12.35,55.4-32.1,73.88-1.89,1.78-3.84,3.47-5.87,5.1-6,4.82-12.56,8.97-19.56,12.33-1.92.92-3.88,1.79-5.87,2.58-7.04,2.86-14.47,4.94-22.18,6.14-1.94.29-3.89.55-5.87.72-3.22.32-6.48.48-9.78.48s-6.56-.16-9.78-.48c-1.98-.18-3.93-.43-5.87-.72-7.3-1.14-14.34-3.06-21.03-5.67v20.77c6.77,2.16,13.8,3.74,21.03,4.67,1.95.25,3.9.46,5.87.62v12.92h-102.64l24.37-42.36c-4.95-4.79-9.52-9.99-13.64-15.52l-44.54,77.45h136.46v68.6c-2.01-.5-3.98-1.13-5.87-1.91-15.77-6.43-26.91-21.91-26.91-39.96v-20.86h-19.56v20.86c0,29,19.71,53.42,46.47,60.57,1.92.52,3.87.94,5.87,1.26v36.25c-1.98-.18-3.93-.43-5.87-.73-42.77-6.66-76.76-40.21-84.1-82.77h18.2v-19.56h-57.99v19.56h19.97c7.65,53.43,50.26,95.59,103.92,102.53,1.94.26,3.89.47,5.87.62v25.74h-26.2v19.56h70.71v-19.56h-24.94v-25.73c1.97-.16,3.92-.36,5.87-.62,27.09-3.5,51.38-15.98,69.77-34.37,21.86-21.86,35.38-52.06,35.38-85.42v-261.81c0-66.72-54.08-120.8-120.8-120.8Zm15.65,325.46c7.64-.99,15.06-2.69,22.18-5.04,1.99-.66,3.94-1.35,5.87-2.11v66.98c0,18.48-11.68,34.28-28.05,40.41-1.9.71-3.85,1.29-5.87,1.72v-68.86h18.11v-19.56h-18.11v-12.92c1.97-.16,3.92-.36,5.87-.62Zm85.59,57.15c0,50.5-37.17,92.48-85.59,100.03-1.94.29-3.89.55-5.87.72v-36.06c2-.29,3.95-.67,5.87-1.15,11.26-2.78,21.31-8.6,29.26-16.53,11.35-11.35,18.36-27.03,18.36-44.33v-76.7c2-1.22,3.95-2.51,5.87-3.85,12.71-8.88,23.62-20.15,32.1-33.15v111.03Z"/>
  </g>
  <path class="cls-4" d="m173.63,482.8h-10v-75.8c0-41.01,10.77-81.36,31.14-116.68,19.76-34.26,48.11-63.19,81.98-83.65l5.17,8.56c-32.43,19.59-59.57,47.28-78.49,80.08-19.5,33.81-29.8,72.43-29.8,111.69v75.8Z"/>
  <path class="cls-4" d="m631.37,482.8h-10v-75.8c0-38.87-10.11-77.15-29.25-110.72-18.56-32.56-45.24-60.18-77.14-79.89l5.25-8.51c33.32,20.58,61.19,49.44,80.57,83.44,19.99,35.07,30.56,75.07,30.56,115.67v75.8Z"/>
  <path class="cls-4" d="m151.38,528.63v50.25c0,4.5.12,10,2.62,14.37,2.5,4.25,8.13,8.62,15.5,8.62s13-4.38,15.5-8.62c2.5-4.37,2.62-9.87,2.62-14.37v-50.25h12.75v53.62c0,6.62-1.38,14.62-7.75,21.62-4.38,4.75-11.75,9.75-23.12,9.75s-18.75-5-23.13-9.75c-6.38-7-7.75-15-7.75-21.62v-53.62h12.75Z"/>
  <path class="cls-4" d="m612,529.44c11.62,0,21.75,1.25,31,8.12,10.12,7.62,16,19.75,16,33.62s-5.75,25.87-16.75,33.62c-9.75,6.88-18.88,8-30.5,8h-17.25v-83.37h17.5Zm-4.75,71.37h5.5c6.25,0,14.87-.5,22.12-5.88,5.75-4.37,11.38-12.37,11.38-23.75s-5.25-19.62-11.25-24c-7.25-5.25-16.12-5.75-22.25-5.75h-5.5v59.37Z"/>
  <path class="cls-4" d="m411.75,145.65c-.75-1.88-1.88-3.62-3.75-5.25-2.62-2.12-5.38-3-9-3-7.75,0-11.75,4.62-11.75,10,0,2.5.88,6.88,9,10.12l8.38,3.38c15.38,6.25,19.62,15,19.62,24.5,0,15.88-11.25,26.75-26.88,26.75-9.62,0-15.38-3.62-19.62-8.38-4.5-5-6.5-10.5-7-16.25l12.62-2.75c0,4.12,1.5,8,3.5,10.62,2.38,3,5.88,5,10.88,5,7.75,0,13.75-5.62,13.75-14s-6.5-12-12-14.25l-8-3.38c-6.88-2.88-17-8.62-17-21.12,0-11.25,8.75-22,24.38-22,9,0,14.12,3.38,16.75,5.62,2.25,2,4.62,4.88,6.38,8.38l-10.25,6Z"/>
  <g>
    <path class="cls-4" d="m164,691.54l32.26,6.3-23.31,10.44,23.31,10.53-32.26,5.67v-4.68l18.09-3.06-19.48-8.73,19.53-8.64-18.13-3.15v-4.68Z"/>
    <path class="cls-4" d="m194.01,748h-30.01v-4.59h30.01v4.59Z"/>
    <path class="cls-4" d="m194.55,771.54l-25.62,1.97.68,8.79-4.31.33-1.03-13.37,29.92-2.3.35,4.58Z"/>
    <path class="cls-4" d="m198.73,799.98l-25.07,5.65,1.94,8.6-4.21.95-2.95-13.08,29.28-6.59,1.01,4.48Z"/>
    <path class="cls-4" d="m207.33,840.12l-4.43-11.12-7.07,2.81,4.29,10.79-4.01,1.6-4.29-10.79-8.78,3.5,4.43,11.12-4.01,1.6-6.13-15.39,27.89-11.1,6.13,15.39-4.01,1.6Z"/>
    <path class="cls-4" d="m193.34,869.67l26.91-17.39-7.34,30.68,17.46-11.29,2.49,3.86-26.76,17.3,7.34-30.68-17.61,11.38-2.49-3.86Z"/>
    <path class="cls-4" d="m254.66,920.68c-6.16,6.31-15.61,6.52-22.05.23-6.44-6.29-6.46-15.74-.3-22.05,6.16-6.31,15.61-6.52,22.05-.23,6.44,6.29,6.46,15.74.3,22.05Zm-3.28-3.21c4.65-4.76,4.64-11.32.03-15.81-4.6-4.49-11.16-4.35-15.81.41-4.65,4.76-4.64,11.32-.03,15.81,4.6,4.49,11.16,4.35,15.81-.41Z"/>
    <path class="cls-4" d="m278.82,919.84l-4.22,22.13,18.32-13.11,4.17,2.67-28.43,19.73,6-34.09,4.17,2.67Z"/>
    <path class="cls-4" d="m323.85,948.07l-11.07-4.55-2.89,7.03,10.74,4.42-1.64,3.99-10.74-4.42-3.6,8.74,11.07,4.55-1.64,3.99-15.31-6.3,11.42-27.75,15.31,6.3-1.64,3.99Z"/>
    <path class="cls-4" d="m361.63,960.57c-2.63-3.64-5.61-4.59-7.28-4.95-6.38-1.35-11.69,2.45-13.07,8.92-1.31,6.21,2.16,11.96,8.41,13.28,3.52.75,6.63-.48,8.64-1.71l-1.13,5.33c-3.32,1.14-6.5.92-8.52.5-5.33-1.13-8.16-4.26-9.53-6.25-2.75-3.94-3.24-7.95-2.36-12.09,1.15-5.41,4.18-8.68,7.14-10.49,3.64-2.22,7.37-2.44,11.42-1.58,2.69.57,5.18,1.6,7.39,3.77l-1.12,5.28Z"/>
    <path class="cls-4" d="m395.85,960.08l-11.97-.39-.25,7.6,11.61.38-.14,4.32-11.61-.38-.31,9.45,11.97.39-.14,4.32-16.55-.54.99-30,16.55.54-.14,4.32Z"/>
    <path class="cls-4" d="m416.69,985.36l-4.11-31.78,24.53,19.84-2.67-20.62,4.55-.59,4.08,31.6-24.53-19.84,2.69,20.8-4.55.59Z"/>
    <path class="cls-4" d="m465.49,949.16l7.98,24.42-4.36,1.43-7.98-24.42-6.54,2.14-1.34-4.11,17.45-5.7,1.34,4.11-6.54,2.14Z"/>
    <path class="cls-4" d="m516.84,936.64c4.26,7.73,1.72,16.83-6.16,21.17s-16.93,1.62-21.19-6.1c-4.26-7.72-1.72-16.83,6.16-21.17,7.88-4.34,16.93-1.62,21.19,6.1Zm-4.02,2.21c-3.21-5.83-9.49-7.72-15.13-4.61-5.64,3.11-7.4,9.42-4.18,15.25s9.49,7.72,15.13,4.61c5.64-3.1,7.4-9.42,4.18-15.25Z"/>
    <path class="cls-4" d="m558.3,920.02c-.75,2.67-2.17,4.98-4.75,7.3-6.69,6.02-16.06,5.5-22.02-1.13-5.9-6.56-5.5-16,1.19-22.02,6.66-5.99,16.12-5.43,22.02,1.13,3.67,4.08,4.15,8.25,4.12,10.76l6.83.33-4.21,3.79-3.18-.17Zm-3.83-4.18c-.04-2.2-.62-4.65-3.14-7.46-4.46-4.95-11-5.36-15.78-1.05-4.78,4.3-5.06,10.85-.61,15.8,4.46,4.95,11,5.36,15.78,1.05,1.67-1.51,2.54-2.96,3.06-4.33l-10.01-.49,4.25-3.82,6.45.31Z"/>
    <path class="cls-4" d="m557.78,878.09l14.68,10.57c1.31.95,2.95,2.07,4.75,2.26,1.77.16,4.23-.56,5.78-2.71s1.46-4.72.74-6.34c-.75-1.65-2.33-2.84-3.65-3.79l-14.68-10.58,2.68-3.72,15.66,11.29c1.94,1.39,3.98,3.48,4.69,6.81.47,2.28.38,5.48-2.02,8.81-2.39,3.32-5.41,4.43-7.71,4.7-3.39.39-6.01-.89-7.95-2.29l-15.67-11.29,2.68-3.72Z"/>
    <path class="cls-4" d="m604.96,841.72l-5.27,11.69,5.26,5.97-2.03,4.51-22.83-26.67,34.81.08-2.03,4.51-7.9-.1Zm-4.7-.09l-11.1-.11,7.37,8.4,3.73-8.29Z"/>
    <path class="cls-4" d="m597.38,805.71l24.87,6.46-1.15,4.44-24.87-6.46-1.73,6.66-4.18-1.09,4.61-17.77,4.18,1.09-1.73,6.66Z"/>
    <path class="cls-4" d="m602.6,773.94l25.58,2.43-.43,4.57-25.58-2.43-.65,6.85-4.3-.41,1.74-18.28,4.3.41-.65,6.85Z"/>
    <path class="cls-4" d="m598.99,745.67c0-3.64.45-5.98,1.75-7.92,2.21-3.29,5.76-3.55,7.06-3.55,4.32,0,7.47,2.65,8.37,6.66l12.82-9.36v5.53l-12.28,8.59v.81h12.28v4.59h-30.01v-5.36Zm13.77.77v-1.44c0-1.26-.13-6.39-4.91-6.39-4.23,0-4.63,4-4.63,6.25v1.58h9.54Z"/>
    <path class="cls-4" d="m614.02,684.59c8.82,0,15.57,6.62,15.57,15.61s-6.75,15.61-15.57,15.61-15.57-6.61-15.57-15.61,6.75-15.61,15.57-15.61Zm0,4.59c-6.66,0-11.34,4.59-11.34,11.02s4.68,11.02,11.34,11.02,11.34-4.59,11.34-11.02-4.68-11.02-11.34-11.02Z"/>
  </g>
</svg>